<svg width="115" height="23" viewBox="0 0 115 23" fill="none" xmlns="http://www.w3.org/2000/svg">
<path d="M6.099 18.19C4.97167 18.19 4.00267 18.019 3.192 17.677C2.38133 17.335 1.767 16.8853 1.349 16.328C0.931 15.7707 0.709333 15.169 0.684 14.523C0.684 14.409 0.722 14.314 0.798 14.238C0.874 14.162 0.969 14.124 1.083 14.124H2.774C2.926 14.124 3.04 14.1557 3.116 14.219C3.20467 14.2697 3.287 14.3583 3.363 14.485C3.48967 14.9157 3.781 15.2767 4.237 15.568C4.693 15.8593 5.31367 16.005 6.099 16.005C6.99833 16.005 7.676 15.8593 8.132 15.568C8.588 15.264 8.816 14.846 8.816 14.314C8.816 13.9593 8.69567 13.668 8.455 13.44C8.227 13.212 7.87867 13.0157 7.41 12.851C6.954 12.6863 6.27 12.4837 5.358 12.243C3.86333 11.8883 2.76767 11.4197 2.071 10.837C1.387 10.2417 1.045 9.39933 1.045 8.31C1.045 7.57533 1.24133 6.923 1.634 6.353C2.03933 5.783 2.61567 5.33333 3.363 5.004C4.123 4.67467 5.00333 4.51 6.004 4.51C7.04267 4.51 7.942 4.69367 8.702 5.061C9.462 5.42833 10.0383 5.89067 10.431 6.448C10.8363 6.99267 11.0517 7.53733 11.077 8.082C11.077 8.196 11.039 8.291 10.963 8.367C10.887 8.443 10.792 8.481 10.678 8.481H8.911C8.645 8.481 8.46133 8.36067 8.36 8.12C8.284 7.71467 8.03067 7.379 7.6 7.113C7.16933 6.83433 6.63733 6.695 6.004 6.695C5.29467 6.695 4.73733 6.828 4.332 7.094C3.92667 7.36 3.724 7.74633 3.724 8.253C3.724 8.60767 3.82533 8.899 4.028 9.127C4.23067 9.355 4.54733 9.55767 4.978 9.735C5.42133 9.91233 6.05467 10.1087 6.878 10.324C7.99267 10.5773 8.87933 10.8623 9.538 11.179C10.2093 11.4957 10.7033 11.8947 11.02 12.376C11.3367 12.8573 11.495 13.4717 11.495 14.219C11.495 15.0297 11.267 15.739 10.811 16.347C10.3677 16.9423 9.73433 17.3983 8.911 17.715C8.10033 18.0317 7.163 18.19 6.099 18.19ZM14.6414 6.486C14.5148 6.486 14.4071 6.44167 14.3184 6.353C14.2298 6.26433 14.1854 6.15667 14.1854 6.03V4.662C14.1854 4.53533 14.2298 4.42767 14.3184 4.339C14.4071 4.25033 14.5148 4.206 14.6414 4.206H16.3704C16.4971 4.206 16.6048 4.25033 16.6934 4.339C16.7948 4.42767 16.8454 4.53533 16.8454 4.662V6.03C16.8454 6.15667 16.8011 6.26433 16.7124 6.353C16.6238 6.44167 16.5098 6.486 16.3704 6.486H14.6414ZM14.7174 18C14.5908 18 14.4831 17.9557 14.3944 17.867C14.3058 17.7783 14.2614 17.6707 14.2614 17.544V8.576C14.2614 8.44933 14.3058 8.34167 14.3944 8.253C14.4831 8.16433 14.5908 8.12 14.7174 8.12H16.2944C16.4338 8.12 16.5414 8.16433 16.6174 8.253C16.7061 8.329 16.7504 8.43667 16.7504 8.576V17.544C16.7504 17.6707 16.7061 17.7783 16.6174 17.867C16.5414 17.9557 16.4338 18 16.2944 18H14.7174ZM20.5442 18C20.4175 18 20.3099 17.9557 20.2212 17.867C20.1325 17.7783 20.0882 17.6707 20.0882 17.544V8.576C20.0882 8.44933 20.1325 8.34167 20.2212 8.253C20.3099 8.16433 20.4175 8.12 20.5442 8.12H22.0262C22.1529 8.12 22.2605 8.16433 22.3492 8.253C22.4379 8.34167 22.4822 8.44933 22.4822 8.576V9.222C23.1409 8.36067 24.0592 7.93 25.2372 7.93C26.6432 7.93 27.6249 8.49367 28.1822 9.621C28.4862 9.11433 28.9169 8.709 29.4742 8.405C30.0315 8.08833 30.6332 7.93 31.2792 7.93C32.3179 7.93 33.1665 8.28467 33.8252 8.994C34.4839 9.70333 34.8132 10.7357 34.8132 12.091V17.544C34.8132 17.6707 34.7689 17.7783 34.6802 17.867C34.6042 17.9557 34.4965 18 34.3572 18H32.7992C32.6725 18 32.5649 17.9557 32.4762 17.867C32.3875 17.7783 32.3432 17.6707 32.3432 17.544V12.243C32.3432 11.445 32.1722 10.8687 31.8302 10.514C31.5009 10.1467 31.0575 9.963 30.5002 9.963C30.0062 9.963 29.5819 10.1467 29.2272 10.514C28.8852 10.8813 28.7142 11.4577 28.7142 12.243V17.544C28.7142 17.6707 28.6699 17.7783 28.5812 17.867C28.4925 17.9557 28.3849 18 28.2582 18H26.7002C26.5735 18 26.4659 17.9557 26.3772 17.867C26.2885 17.7783 26.2442 17.6707 26.2442 17.544V12.243C26.2442 11.445 26.0669 10.8687 25.7122 10.514C25.3702 10.1467 24.9332 9.963 24.4012 9.963C23.8945 9.963 23.4639 10.1467 23.1092 10.514C22.7672 10.8813 22.5962 11.4577 22.5962 12.243V17.544C22.5962 17.6707 22.5519 17.7783 22.4632 17.867C22.3745 17.9557 22.2669 18 22.1402 18H20.5442ZM38.5247 21.61C38.3981 21.61 38.2904 21.5657 38.2017 21.477C38.1131 21.401 38.0687 21.2933 38.0687 21.154V8.576C38.0687 8.43667 38.1131 8.329 38.2017 8.253C38.2904 8.16433 38.3981 8.12 38.5247 8.12H40.0257C40.1651 8.12 40.2727 8.16433 40.3487 8.253C40.4374 8.329 40.4817 8.43667 40.4817 8.576V9.336C41.1911 8.39867 42.2044 7.93 43.5217 7.93C44.8011 7.93 45.7827 8.33533 46.4667 9.146C47.1507 9.944 47.5181 11.027 47.5687 12.395C47.5814 12.547 47.5877 12.7687 47.5877 13.06C47.5877 13.364 47.5814 13.592 47.5687 13.744C47.5181 15.074 47.1507 16.1507 46.4667 16.974C45.7827 17.7847 44.8011 18.19 43.5217 18.19C42.2424 18.19 41.2671 17.7403 40.5957 16.841V21.154C40.5957 21.2933 40.5514 21.401 40.4627 21.477C40.3867 21.5657 40.2791 21.61 40.1397 21.61H38.5247ZM42.8187 16.157C44.1867 16.157 44.9151 15.3147 45.0037 13.63C45.0164 13.5033 45.0227 13.3133 45.0227 13.06C45.0227 12.8067 45.0164 12.6167 45.0037 12.49C44.9151 10.8053 44.1867 9.963 42.8187 9.963C42.0841 9.963 41.5394 10.1973 41.1847 10.666C40.8301 11.1347 40.6337 11.711 40.5957 12.395L40.5767 13.117L40.5957 13.858C40.6211 14.4913 40.8174 15.036 41.1847 15.492C41.5647 15.9353 42.1094 16.157 42.8187 16.157ZM51.0126 18C50.886 18 50.7783 17.9557 50.6896 17.867C50.601 17.7783 50.5566 17.6707 50.5566 17.544V4.966C50.5566 4.82667 50.601 4.719 50.6896 4.643C50.7783 4.55433 50.886 4.51 51.0126 4.51H52.5896C52.729 4.51 52.8366 4.55433 52.9126 4.643C53.0013 4.719 53.0456 4.82667 53.0456 4.966V17.544C53.0456 17.6707 53.0013 17.7783 52.9126 17.867C52.8366 17.9557 52.729 18 52.5896 18H51.0126ZM60.6389 18.19C59.2329 18.19 58.1119 17.7847 57.2759 16.974C56.4526 16.1507 56.0156 14.998 55.9649 13.516L55.9459 13.041L55.9649 12.566C56.0283 11.122 56.4716 9.98833 57.2949 9.165C58.1309 8.34167 59.2456 7.93 60.6389 7.93C62.1336 7.93 63.2863 8.386 64.0969 9.298C64.9203 10.21 65.3319 11.426 65.3319 12.946V13.345C65.3319 13.4717 65.2876 13.5793 65.1989 13.668C65.1103 13.7567 64.9963 13.801 64.8569 13.801H58.5489V13.953C58.5743 14.6497 58.7643 15.2387 59.1189 15.72C59.4863 16.1887 59.9866 16.423 60.6199 16.423C61.3673 16.423 61.9689 16.1317 62.4249 15.549C62.5389 15.4097 62.6276 15.321 62.6909 15.283C62.7669 15.245 62.8746 15.226 63.0139 15.226H64.6479C64.7619 15.226 64.8569 15.264 64.9329 15.34C65.0216 15.4033 65.0659 15.4857 65.0659 15.587C65.0659 15.891 64.8823 16.252 64.5149 16.67C64.1603 17.0753 63.6473 17.43 62.9759 17.734C62.3046 18.038 61.5256 18.19 60.6389 18.19ZM62.7479 12.205V12.148C62.7479 11.4007 62.5579 10.799 62.1779 10.343C61.8106 9.887 61.2976 9.659 60.6389 9.659C59.9803 9.659 59.4673 9.887 59.0999 10.343C58.7326 10.799 58.5489 11.4007 58.5489 12.148V12.205H62.7479Z" fill="#FF6838"/>
<path d="M68.8498 18C68.7231 18 68.6154 17.9557 68.5268 17.867C68.4381 17.7783 68.3938 17.6707 68.3938 17.544V5.175C68.3938 5.03567 68.4318 4.92167 68.5078 4.833C68.5964 4.74433 68.7104 4.7 68.8498 4.7H77.0958C77.2351 4.7 77.3491 4.74433 77.4378 4.833C77.5264 4.92167 77.5708 5.03567 77.5708 5.175V6.505C77.5708 6.64433 77.5264 6.75833 77.4378 6.847C77.3491 6.923 77.2351 6.961 77.0958 6.961H70.9968V10.571H76.7158C76.8551 10.571 76.9691 10.6153 77.0578 10.704C77.1464 10.7927 77.1908 10.9067 77.1908 11.046V12.376C77.1908 12.5153 77.1464 12.6293 77.0578 12.718C76.9691 12.794 76.8551 12.832 76.7158 12.832H70.9968V17.544C70.9968 17.6833 70.9524 17.7973 70.8638 17.886C70.7751 17.962 70.6611 18 70.5218 18H68.8498ZM84.5784 18.19C83.0964 18.19 81.95 17.81 81.1394 17.05C80.3287 16.2773 79.8917 15.226 79.8284 13.896L79.8094 13.06L79.8284 12.224C79.8917 10.9067 80.335 9.86167 81.1584 9.089C81.9817 8.31633 83.1217 7.93 84.5784 7.93C86.035 7.93 87.175 8.31633 87.9984 9.089C88.8217 9.86167 89.265 10.9067 89.3284 12.224C89.341 12.376 89.3474 12.6547 89.3474 13.06C89.3474 13.4653 89.341 13.744 89.3284 13.896C89.265 15.226 88.828 16.2773 88.0174 17.05C87.2067 17.81 86.0604 18.19 84.5784 18.19ZM84.5784 16.309C85.2497 16.309 85.769 16.1 86.1364 15.682C86.5037 15.2513 86.7064 14.6243 86.7444 13.801C86.757 13.6743 86.7634 13.4273 86.7634 13.06C86.7634 12.6927 86.757 12.4457 86.7444 12.319C86.7064 11.4957 86.5037 10.875 86.1364 10.457C85.769 10.0263 85.2497 9.811 84.5784 9.811C83.907 9.811 83.3877 10.0263 83.0204 10.457C82.653 10.875 82.4504 11.4957 82.4124 12.319L82.3934 13.06L82.4124 13.801C82.4504 14.6243 82.653 15.2513 83.0204 15.682C83.3877 16.1 83.907 16.309 84.5784 16.309ZM96.6395 18.19C95.1575 18.19 94.0112 17.81 93.2005 17.05C92.3898 16.2773 91.9528 15.226 91.8895 13.896L91.8705 13.06L91.8895 12.224C91.9528 10.9067 92.3962 9.86167 93.2195 9.089C94.0428 8.31633 95.1828 7.93 96.6395 7.93C98.0962 7.93 99.2362 8.31633 100.059 9.089C100.883 9.86167 101.326 10.9067 101.389 12.224C101.402 12.376 101.408 12.6547 101.408 13.06C101.408 13.4653 101.402 13.744 101.389 13.896C101.326 15.226 100.889 16.2773 100.078 17.05C99.2678 17.81 98.1215 18.19 96.6395 18.19ZM96.6395 16.309C97.3108 16.309 97.8302 16.1 98.1975 15.682C98.5648 15.2513 98.7675 14.6243 98.8055 13.801C98.8182 13.6743 98.8245 13.4273 98.8245 13.06C98.8245 12.6927 98.8182 12.4457 98.8055 12.319C98.7675 11.4957 98.5648 10.875 98.1975 10.457C97.8302 10.0263 97.3108 9.811 96.6395 9.811C95.9682 9.811 95.4488 10.0263 95.0815 10.457C94.7142 10.875 94.5115 11.4957 94.4735 12.319L94.4545 13.06L94.4735 13.801C94.5115 14.6243 94.7142 15.2513 95.0815 15.682C95.4488 16.1 95.9682 16.309 96.6395 16.309ZM107.998 18.19C106.718 18.19 105.737 17.7783 105.053 16.955C104.369 16.1317 104.001 15.036 103.951 13.668L103.932 13.041L103.951 12.433C103.989 11.103 104.35 10.02 105.034 9.184C105.73 8.348 106.718 7.93 107.998 7.93C109.226 7.93 110.202 8.348 110.924 9.184V4.966C110.924 4.82667 110.968 4.719 111.057 4.643C111.145 4.55433 111.253 4.51 111.38 4.51H112.995C113.134 4.51 113.242 4.55433 113.318 4.643C113.406 4.719 113.451 4.82667 113.451 4.966V17.544C113.451 17.6707 113.406 17.7783 113.318 17.867C113.242 17.9557 113.134 18 112.995 18H111.494C111.367 18 111.259 17.9557 111.171 17.867C111.082 17.7783 111.038 17.6707 111.038 17.544V16.841C110.316 17.7403 109.302 18.19 107.998 18.19ZM108.701 16.157C109.435 16.157 109.98 15.9227 110.335 15.454C110.689 14.9853 110.886 14.409 110.924 13.725C110.936 13.573 110.943 13.326 110.943 12.984C110.943 12.6547 110.936 12.414 110.924 12.262C110.898 11.6287 110.696 11.0903 110.316 10.647C109.948 10.191 109.41 9.963 108.701 9.963C107.333 9.963 106.604 10.8053 106.516 12.49L106.497 13.06L106.516 13.63C106.604 15.3147 107.333 16.157 108.701 16.157Z" fill="#363853"/>
</svg>
